<?xml version="1.0" standalone="no"?>
<!DOCTYPE svg PUBLIC "-//W3C//DTD SVG 20010904//EN"
 "http://www.w3.org/TR/2001/REC-SVG-20010904/DTD/svg10.dtd">
<svg version="1.0" xmlns="http://www.w3.org/2000/svg"
 width="260.000000pt" height="260.000000pt" viewBox="0 0 260.000000 260.000000"
 preserveAspectRatio="xMidYMid meet">
<metadata>
Created by potrace 1.11, written by Peter Selinger 2001-2013
</metadata>
<g transform="translate(0.000000,260.000000) scale(0.100000,-0.100000)"
fill="#000000" stroke="none">
<path d="M0 1300 l0 -1300 1300 0 1300 0 0 1300 0 1300 -1300 0 -1300 0 0
-1300z m640 425 c1 -5 -10 -12 -22 -13 -35 -6 -59 -32 -52 -56 12 -37 146
-228 154 -220 4 5 42 53 84 107 97 125 102 167 20 167 -15 0 -24 6 -24 15 0
13 22 15 139 15 83 0 142 -4 146 -10 3 -6 -2 -13 -12 -16 -80 -24 -105 -46
-211 -180 -59 -74 -108 -142 -110 -149 -3 -13 191 -309 235 -360 28 -32 65
-55 90 -55 14 0 23 -6 23 -15 0 -13 -26 -15 -170 -15 -144 0 -170 2 -170 15 0
10 10 15 30 15 23 0 33 6 42 25 10 23 3 36 -76 156 -72 109 -90 129 -100 118
-7 -8 -52 -64 -99 -125 -104 -134 -113 -174 -36 -174 10 0 19 -7 19 -15 0 -13
-22 -15 -140 -15 -118 0 -140 2 -140 15 0 9 9 15 23 15 28 0 102 47 138 86 52
59 209 264 209 274 0 13 -151 240 -198 298 -39 47 -97 82 -137 82 -16 0 -25 6
-25 15 0 13 25 15 185 13 115 -2 185 -7 185 -13z m870 0 c0 -8 -9 -15 -21 -15
-31 0 -59 -19 -59 -39 0 -18 140 -241 150 -240 12 1 165 210 168 229 5 30 -15
50 -49 50 -19 0 -29 5 -29 15 0 13 22 15 140 15 118 0 140 -2 140 -15 0 -8 -9
-15 -20 -15 -53 0 -101 -44 -238 -222 l-83 -108 123 -182 c123 -183 166 -228
214 -228 15 0 24 -6 24 -15 0 -13 -26 -15 -170 -15 -144 0 -170 2 -170 15 0 8
9 15 19 15 74 0 68 39 -30 187 -45 68 -83 123 -85 123 -5 0 -181 -225 -193
-247 -16 -31 1 -61 36 -65 14 -2 28 -9 31 -15 3 -10 -30 -13 -142 -13 -94 0
-146 4 -146 10 0 6 8 13 18 16 9 3 41 17 70 31 51 25 121 103 266 296 l29 38
-96 143 c-111 165 -167 223 -227 232 -24 4 -40 12 -40 20 0 11 35 14 185 14
158 0 185 -2 185 -15z m840 0 c0 -10 -10 -15 -33 -15 -18 0 -42 -6 -53 -14
-18 -14 -19 -31 -22 -345 -2 -221 1 -337 8 -351 6 -12 29 -25 55 -31 25 -6 45
-15 45 -20 0 -5 -76 -9 -170 -9 -101 0 -170 4 -170 10 0 5 17 12 38 16 75 13
72 -3 72 374 0 374 3 358 -67 369 -20 3 -38 12 -41 19 -3 9 35 12 167 12 145
0 171 -2 171 -15z"/>
</g>
</svg>
